<mxfile host="app.diagrams.net" modified="2020-12-22T12:03:09.519Z" agent="5.0 (Windows NT 10.0; Win64; x64) AppleWebKit/537.36 (KHTML, like Gecko) Chrome/87.0.4280.88 Safari/537.36" etag="oo7Zey8VcNos7akLsDPj" version="14.1.1" type="github" pages="5">
  <diagram id="LIV44Jqjrogmq-wmUij_" name="SAP on Prem to SAP Cloud">
    <mxGraphModel dx="1422" dy="1943" grid="1" gridSize="10" guides="1" tooltips="1" connect="1" arrows="1" fold="1" page="1" pageScale="1" pageWidth="827" pageHeight="1169" math="0" shadow="0">
      <root>
        <mxCell id="0" />
        <mxCell id="1" parent="0" />
        <mxCell id="mnKxhckPXdKTD1mvHjyG-7" value="" style="rounded=1;whiteSpace=wrap;html=1;fillColor=none;dashed=1;" vertex="1" parent="1">
          <mxGeometry x="30" y="280" width="780" height="410" as="geometry" />
        </mxCell>
        <mxCell id="mnKxhckPXdKTD1mvHjyG-1" value="&lt;font style=&quot;font-size: 22px&quot;&gt;S/4 Hanna&lt;/font&gt;" style="rounded=1;whiteSpace=wrap;html=1;verticalAlign=top;dashed=1;dashPattern=1 1;" vertex="1" parent="1">
          <mxGeometry x="280" y="380" width="220" height="180" as="geometry" />
        </mxCell>
        <mxCell id="mnKxhckPXdKTD1mvHjyG-2" value="&lt;font style=&quot;font-size: 22px&quot;&gt;Sales Cloud&lt;/font&gt;" style="rounded=1;whiteSpace=wrap;html=1;verticalAlign=top;dashed=1;dashPattern=1 1;" vertex="1" parent="1">
          <mxGeometry x="70" y="-190" width="220" height="180" as="geometry" />
        </mxCell>
        <mxCell id="mnKxhckPXdKTD1mvHjyG-3" value="&lt;font style=&quot;font-size: 22px&quot;&gt;Service Cloud&lt;/font&gt;" style="rounded=1;whiteSpace=wrap;html=1;verticalAlign=top;dashed=1;dashPattern=1 1;" vertex="1" parent="1">
          <mxGeometry x="320" y="-190" width="220" height="180" as="geometry" />
        </mxCell>
        <mxCell id="mnKxhckPXdKTD1mvHjyG-4" value="&lt;font style=&quot;font-size: 22px&quot;&gt;CPQ&lt;/font&gt;" style="rounded=1;whiteSpace=wrap;html=1;verticalAlign=top;dashed=1;dashPattern=1 1;" vertex="1" parent="1">
          <mxGeometry x="560" y="-190" width="220" height="180" as="geometry" />
        </mxCell>
        <mxCell id="mnKxhckPXdKTD1mvHjyG-5" value="&lt;font style=&quot;font-size: 22px&quot;&gt;CPI&lt;/font&gt;" style="rounded=1;whiteSpace=wrap;html=1;verticalAlign=top;dashed=1;dashPattern=1 1;" vertex="1" parent="1">
          <mxGeometry x="80" y="20" width="690" height="120" as="geometry" />
        </mxCell>
        <mxCell id="mnKxhckPXdKTD1mvHjyG-6" value="&lt;font style=&quot;font-size: 22px&quot;&gt;Replication Services&lt;/font&gt;" style="rounded=1;whiteSpace=wrap;html=1;verticalAlign=top;dashed=1;dashPattern=1 1;" vertex="1" parent="1">
          <mxGeometry x="100" y="60" width="650" height="60" as="geometry" />
        </mxCell>
        <mxCell id="mnKxhckPXdKTD1mvHjyG-8" value="" style="rounded=1;whiteSpace=wrap;html=1;fillColor=none;dashed=1;" vertex="1" parent="1">
          <mxGeometry x="20" y="-230" width="780" height="410" as="geometry" />
        </mxCell>
        <mxCell id="mnKxhckPXdKTD1mvHjyG-9" value="&lt;font style=&quot;font-size: 22px&quot;&gt;SAP Cloud Connector&lt;/font&gt;" style="rounded=1;whiteSpace=wrap;html=1;verticalAlign=top;dashed=1;dashPattern=1 1;" vertex="1" parent="1">
          <mxGeometry x="280" y="330" width="220" height="50" as="geometry" />
        </mxCell>
      </root>
    </mxGraphModel>
  </diagram>
  <diagram name="SAP on Prem to Non- SAP Strategic" id="lAN1Gi53KAET0i5_wKif">
    <mxGraphModel dx="1422" dy="1943" grid="1" gridSize="10" guides="1" tooltips="1" connect="1" arrows="1" fold="1" page="1" pageScale="1" pageWidth="827" pageHeight="1169" math="0" shadow="0">
      <root>
        <mxCell id="5832l_rls3IejlMEDBqT-0" />
        <mxCell id="5832l_rls3IejlMEDBqT-1" parent="5832l_rls3IejlMEDBqT-0" />
        <mxCell id="5832l_rls3IejlMEDBqT-9" value="" style="rounded=1;whiteSpace=wrap;html=1;fillColor=none;dashed=1;" vertex="1" parent="5832l_rls3IejlMEDBqT-1">
          <mxGeometry x="20" y="-10" width="1400" height="190" as="geometry" />
        </mxCell>
        <mxCell id="5832l_rls3IejlMEDBqT-2" value="" style="rounded=1;whiteSpace=wrap;html=1;fillColor=none;dashed=1;" vertex="1" parent="5832l_rls3IejlMEDBqT-1">
          <mxGeometry x="30" y="280" width="1390" height="410" as="geometry" />
        </mxCell>
        <mxCell id="5832l_rls3IejlMEDBqT-3" value="&lt;font style=&quot;font-size: 22px&quot;&gt;S/4 Hanna&lt;/font&gt;" style="rounded=1;whiteSpace=wrap;html=1;verticalAlign=top;dashed=1;dashPattern=1 1;" vertex="1" parent="5832l_rls3IejlMEDBqT-1">
          <mxGeometry x="280" y="380" width="220" height="180" as="geometry" />
        </mxCell>
        <mxCell id="5832l_rls3IejlMEDBqT-7" value="&lt;font style=&quot;font-size: 22px&quot;&gt;CPI&lt;/font&gt;" style="rounded=1;whiteSpace=wrap;html=1;verticalAlign=top;dashed=1;dashPattern=1 1;" vertex="1" parent="5832l_rls3IejlMEDBqT-1">
          <mxGeometry x="80" y="20" width="1310" height="120" as="geometry" />
        </mxCell>
        <mxCell id="5832l_rls3IejlMEDBqT-10" value="&lt;font style=&quot;font-size: 22px&quot;&gt;SAP Cloud Connector&lt;/font&gt;" style="rounded=1;whiteSpace=wrap;html=1;verticalAlign=top;dashed=1;dashPattern=1 1;" vertex="1" parent="5832l_rls3IejlMEDBqT-1">
          <mxGeometry x="280" y="330" width="220" height="50" as="geometry" />
        </mxCell>
        <mxCell id="5832l_rls3IejlMEDBqT-11" value="&lt;span style=&quot;font-size: 22px&quot;&gt;S4 HANA API&#39;s&lt;/span&gt;" style="rounded=1;whiteSpace=wrap;html=1;verticalAlign=top;dashed=1;dashPattern=1 1;" vertex="1" parent="5832l_rls3IejlMEDBqT-1">
          <mxGeometry x="275" y="70" width="900" height="50" as="geometry" />
        </mxCell>
        <mxCell id="5832l_rls3IejlMEDBqT-13" value="&lt;font style=&quot;font-size: 22px&quot;&gt;MES&lt;/font&gt;" style="rounded=1;whiteSpace=wrap;html=1;verticalAlign=top;dashed=1;dashPattern=1 1;" vertex="1" parent="5832l_rls3IejlMEDBqT-1">
          <mxGeometry x="940" y="380" width="120" height="120" as="geometry" />
        </mxCell>
        <mxCell id="5832l_rls3IejlMEDBqT-14" value="&lt;font style=&quot;font-size: 22px&quot;&gt;WMS 1&lt;/font&gt;" style="rounded=1;whiteSpace=wrap;html=1;verticalAlign=top;dashed=1;dashPattern=1 1;" vertex="1" parent="5832l_rls3IejlMEDBqT-1">
          <mxGeometry x="1020" y="425" width="120" height="120" as="geometry" />
        </mxCell>
        <mxCell id="5832l_rls3IejlMEDBqT-15" value="&lt;font style=&quot;font-size: 22px&quot;&gt;WMS 2&lt;/font&gt;" style="rounded=1;whiteSpace=wrap;html=1;verticalAlign=top;dashed=1;dashPattern=1 1;" vertex="1" parent="5832l_rls3IejlMEDBqT-1">
          <mxGeometry x="1100" y="465" width="120" height="120" as="geometry" />
        </mxCell>
      </root>
    </mxGraphModel>
  </diagram>
  <diagram name="SAP on Prem to Non- SAP Strategic- Alternative" id="_ozkmlpAvHG_rSUa-SOn">
    <mxGraphModel dx="1422" dy="774" grid="1" gridSize="10" guides="1" tooltips="1" connect="1" arrows="1" fold="1" page="1" pageScale="1" pageWidth="827" pageHeight="1169" math="0" shadow="0">
      <root>
        <mxCell id="QcCf_2P-0wwNILqQWstH-0" />
        <mxCell id="QcCf_2P-0wwNILqQWstH-1" parent="QcCf_2P-0wwNILqQWstH-0" />
        <mxCell id="QcCf_2P-0wwNILqQWstH-11" value="&lt;font style=&quot;font-size: 22px&quot;&gt;PO&lt;/font&gt;" style="rounded=1;whiteSpace=wrap;html=1;verticalAlign=top;dashed=1;dashPattern=1 1;" vertex="1" parent="QcCf_2P-0wwNILqQWstH-1">
          <mxGeometry x="625" y="320" width="220" height="240" as="geometry" />
        </mxCell>
        <mxCell id="QcCf_2P-0wwNILqQWstH-3" value="" style="rounded=1;whiteSpace=wrap;html=1;fillColor=none;dashed=1;" vertex="1" parent="QcCf_2P-0wwNILqQWstH-1">
          <mxGeometry x="40" y="220" width="1390" height="410" as="geometry" />
        </mxCell>
        <mxCell id="QcCf_2P-0wwNILqQWstH-4" value="&lt;font style=&quot;font-size: 22px&quot;&gt;S/4 Hanna&lt;/font&gt;" style="rounded=1;whiteSpace=wrap;html=1;verticalAlign=top;dashed=1;dashPattern=1 1;" vertex="1" parent="QcCf_2P-0wwNILqQWstH-1">
          <mxGeometry x="280" y="320" width="220" height="240" as="geometry" />
        </mxCell>
        <mxCell id="QcCf_2P-0wwNILqQWstH-7" value="&lt;span style=&quot;font-size: 22px&quot;&gt;Internal API&#39;s&lt;/span&gt;" style="rounded=1;whiteSpace=wrap;html=1;verticalAlign=top;dashed=1;dashPattern=1 1;" vertex="1" parent="QcCf_2P-0wwNILqQWstH-1">
          <mxGeometry x="660" y="390" width="150" height="130" as="geometry" />
        </mxCell>
        <mxCell id="QcCf_2P-0wwNILqQWstH-8" value="&lt;font style=&quot;font-size: 22px&quot;&gt;MES&lt;/font&gt;" style="rounded=1;whiteSpace=wrap;html=1;verticalAlign=top;dashed=1;dashPattern=1 1;" vertex="1" parent="QcCf_2P-0wwNILqQWstH-1">
          <mxGeometry x="940" y="380" width="120" height="120" as="geometry" />
        </mxCell>
        <mxCell id="QcCf_2P-0wwNILqQWstH-9" value="&lt;font style=&quot;font-size: 22px&quot;&gt;WMS 1&lt;/font&gt;" style="rounded=1;whiteSpace=wrap;html=1;verticalAlign=top;dashed=1;dashPattern=1 1;" vertex="1" parent="QcCf_2P-0wwNILqQWstH-1">
          <mxGeometry x="1020" y="425" width="120" height="120" as="geometry" />
        </mxCell>
        <mxCell id="QcCf_2P-0wwNILqQWstH-10" value="&lt;font style=&quot;font-size: 22px&quot;&gt;WMS 2&lt;/font&gt;" style="rounded=1;whiteSpace=wrap;html=1;verticalAlign=top;dashed=1;dashPattern=1 1;" vertex="1" parent="QcCf_2P-0wwNILqQWstH-1">
          <mxGeometry x="1100" y="465" width="120" height="120" as="geometry" />
        </mxCell>
      </root>
    </mxGraphModel>
  </diagram>
  <diagram id="L0XzoMB3hnyQL8qJwOfW" name="SAP On Prem to Non SAP Strategic IAAS- Outbound">
    <mxGraphModel dx="1422" dy="1943" grid="1" gridSize="10" guides="1" tooltips="1" connect="1" arrows="1" fold="1" page="1" pageScale="1" pageWidth="827" pageHeight="1169" math="0" shadow="0">
      <root>
        <mxCell id="rvK_EFlvZFAPhq902yv--0" />
        <mxCell id="rvK_EFlvZFAPhq902yv--1" parent="rvK_EFlvZFAPhq902yv--0" />
        <mxCell id="uhLGmI4VTf_Qx3SUeDdI-13" value="" style="rounded=1;whiteSpace=wrap;html=1;fillColor=none;dashed=1;" vertex="1" parent="rvK_EFlvZFAPhq902yv--1">
          <mxGeometry x="39" y="-460" width="750" height="290" as="geometry" />
        </mxCell>
        <mxCell id="uhLGmI4VTf_Qx3SUeDdI-0" value="" style="rounded=1;whiteSpace=wrap;html=1;fillColor=none;dashed=1;" vertex="1" parent="rvK_EFlvZFAPhq902yv--1">
          <mxGeometry x="30" y="280" width="780" height="410" as="geometry" />
        </mxCell>
        <mxCell id="uhLGmI4VTf_Qx3SUeDdI-1" value="&lt;font style=&quot;font-size: 22px&quot;&gt;S/4 Hanna&lt;/font&gt;" style="rounded=1;whiteSpace=wrap;html=1;verticalAlign=top;dashed=1;dashPattern=1 1;" vertex="1" parent="rvK_EFlvZFAPhq902yv--1">
          <mxGeometry x="310" y="380" width="220" height="180" as="geometry" />
        </mxCell>
        <mxCell id="uhLGmI4VTf_Qx3SUeDdI-2" value="&lt;font style=&quot;font-size: 22px&quot;&gt;Stibo&lt;/font&gt;" style="rounded=1;whiteSpace=wrap;html=1;verticalAlign=top;dashed=1;dashPattern=1 1;" vertex="1" parent="rvK_EFlvZFAPhq902yv--1">
          <mxGeometry x="140" y="-360" width="200" height="110" as="geometry" />
        </mxCell>
        <mxCell id="uhLGmI4VTf_Qx3SUeDdI-5" value="&lt;font style=&quot;font-size: 22px&quot;&gt;CPI&lt;/font&gt;" style="rounded=1;whiteSpace=wrap;html=1;verticalAlign=top;dashed=1;dashPattern=1 1;" vertex="1" parent="rvK_EFlvZFAPhq902yv--1">
          <mxGeometry x="80" y="-100" width="690" height="240" as="geometry" />
        </mxCell>
        <mxCell id="uhLGmI4VTf_Qx3SUeDdI-6" value="&lt;font style=&quot;font-size: 22px&quot;&gt;API&#39;s&lt;/font&gt;" style="rounded=1;whiteSpace=wrap;html=1;verticalAlign=top;dashed=1;dashPattern=1 1;" vertex="1" parent="rvK_EFlvZFAPhq902yv--1">
          <mxGeometry x="100" y="60" width="650" height="60" as="geometry" />
        </mxCell>
        <mxCell id="uhLGmI4VTf_Qx3SUeDdI-7" value="" style="rounded=1;whiteSpace=wrap;html=1;fillColor=none;dashed=1;" vertex="1" parent="rvK_EFlvZFAPhq902yv--1">
          <mxGeometry x="50" y="-130" width="750" height="290" as="geometry" />
        </mxCell>
        <mxCell id="uhLGmI4VTf_Qx3SUeDdI-8" value="&lt;font style=&quot;font-size: 22px&quot;&gt;SAP Cloud Connector&lt;/font&gt;" style="rounded=1;whiteSpace=wrap;html=1;verticalAlign=top;dashed=1;dashPattern=1 1;" vertex="1" parent="rvK_EFlvZFAPhq902yv--1">
          <mxGeometry x="315" y="330" width="220" height="50" as="geometry" />
        </mxCell>
        <mxCell id="uhLGmI4VTf_Qx3SUeDdI-9" value="&lt;font style=&quot;font-size: 22px&quot;&gt;OTM&lt;/font&gt;" style="rounded=1;whiteSpace=wrap;html=1;verticalAlign=top;dashed=1;dashPattern=1 1;" vertex="1" parent="rvK_EFlvZFAPhq902yv--1">
          <mxGeometry x="490" y="-360" width="200" height="110" as="geometry" />
        </mxCell>
        <mxCell id="uhLGmI4VTf_Qx3SUeDdI-10" value="&lt;font style=&quot;font-size: 22px&quot;&gt;API&lt;/font&gt;" style="rounded=1;whiteSpace=wrap;html=1;verticalAlign=top;dashed=1;dashPattern=1 1;" vertex="1" parent="rvK_EFlvZFAPhq902yv--1">
          <mxGeometry x="180" y="-310" width="120" height="50" as="geometry" />
        </mxCell>
        <mxCell id="uhLGmI4VTf_Qx3SUeDdI-11" value="&lt;font style=&quot;font-size: 22px&quot;&gt;API&lt;/font&gt;" style="rounded=1;whiteSpace=wrap;html=1;verticalAlign=top;dashed=1;dashPattern=1 1;" vertex="1" parent="rvK_EFlvZFAPhq902yv--1">
          <mxGeometry x="530" y="-310" width="120" height="50" as="geometry" />
        </mxCell>
        <mxCell id="uhLGmI4VTf_Qx3SUeDdI-12" value="&lt;font style=&quot;font-size: 22px&quot;&gt;Mappings&lt;/font&gt;" style="rounded=1;whiteSpace=wrap;html=1;verticalAlign=top;dashed=1;dashPattern=1 1;" vertex="1" parent="rvK_EFlvZFAPhq902yv--1">
          <mxGeometry x="100" y="-50" width="650" height="60" as="geometry" />
        </mxCell>
      </root>
    </mxGraphModel>
  </diagram>
  <diagram name="SAP On Prem to Non SAP Strategic IAAS- Outbound Alt" id="kIKT5NmXoSnQ9iqU5BI0">
    <mxGraphModel dx="1422" dy="1943" grid="1" gridSize="10" guides="1" tooltips="1" connect="1" arrows="1" fold="1" page="1" pageScale="1" pageWidth="827" pageHeight="1169" math="0" shadow="0">
      <root>
        <mxCell id="cqccvggJwJvV3luGv6mD-0" />
        <mxCell id="cqccvggJwJvV3luGv6mD-1" parent="cqccvggJwJvV3luGv6mD-0" />
        <mxCell id="cqccvggJwJvV3luGv6mD-2" value="" style="rounded=1;whiteSpace=wrap;html=1;fillColor=none;dashed=1;" vertex="1" parent="cqccvggJwJvV3luGv6mD-1">
          <mxGeometry x="39" y="-460" width="750" height="290" as="geometry" />
        </mxCell>
        <mxCell id="cqccvggJwJvV3luGv6mD-3" value="" style="rounded=1;whiteSpace=wrap;html=1;fillColor=none;dashed=1;" vertex="1" parent="cqccvggJwJvV3luGv6mD-1">
          <mxGeometry x="30" y="280" width="780" height="410" as="geometry" />
        </mxCell>
        <mxCell id="cqccvggJwJvV3luGv6mD-4" value="&lt;font style=&quot;font-size: 22px&quot;&gt;S/4 Hanna&lt;/font&gt;" style="rounded=1;whiteSpace=wrap;html=1;verticalAlign=top;dashed=1;dashPattern=1 1;" vertex="1" parent="cqccvggJwJvV3luGv6mD-1">
          <mxGeometry x="310" y="380" width="220" height="180" as="geometry" />
        </mxCell>
        <mxCell id="cqccvggJwJvV3luGv6mD-5" value="&lt;font style=&quot;font-size: 22px&quot;&gt;Stibo&lt;/font&gt;" style="rounded=1;whiteSpace=wrap;html=1;verticalAlign=top;dashed=1;dashPattern=1 1;" vertex="1" parent="cqccvggJwJvV3luGv6mD-1">
          <mxGeometry x="140" y="-420" width="200" height="170" as="geometry" />
        </mxCell>
        <mxCell id="cqccvggJwJvV3luGv6mD-6" value="&lt;font style=&quot;font-size: 22px&quot;&gt;CPI&lt;/font&gt;" style="rounded=1;whiteSpace=wrap;html=1;verticalAlign=top;dashed=1;dashPattern=1 1;" vertex="1" parent="cqccvggJwJvV3luGv6mD-1">
          <mxGeometry x="80" y="10" width="690" height="130" as="geometry" />
        </mxCell>
        <mxCell id="cqccvggJwJvV3luGv6mD-7" value="&lt;font style=&quot;font-size: 22px&quot;&gt;API&#39;s&lt;/font&gt;" style="rounded=1;whiteSpace=wrap;html=1;verticalAlign=top;dashed=1;dashPattern=1 1;" vertex="1" parent="cqccvggJwJvV3luGv6mD-1">
          <mxGeometry x="100" y="60" width="650" height="60" as="geometry" />
        </mxCell>
        <mxCell id="cqccvggJwJvV3luGv6mD-9" value="&lt;font style=&quot;font-size: 22px&quot;&gt;SAP Cloud Connector&lt;/font&gt;" style="rounded=1;whiteSpace=wrap;html=1;verticalAlign=top;dashed=1;dashPattern=1 1;" vertex="1" parent="cqccvggJwJvV3luGv6mD-1">
          <mxGeometry x="315" y="330" width="220" height="50" as="geometry" />
        </mxCell>
        <mxCell id="cqccvggJwJvV3luGv6mD-10" value="&lt;font style=&quot;font-size: 22px&quot;&gt;OTM&lt;/font&gt;" style="rounded=1;whiteSpace=wrap;html=1;verticalAlign=top;dashed=1;dashPattern=1 1;" vertex="1" parent="cqccvggJwJvV3luGv6mD-1">
          <mxGeometry x="490" y="-420" width="200" height="170" as="geometry" />
        </mxCell>
        <mxCell id="cqccvggJwJvV3luGv6mD-11" value="&lt;font style=&quot;font-size: 22px&quot;&gt;API&lt;/font&gt;" style="rounded=1;whiteSpace=wrap;html=1;verticalAlign=top;dashed=1;dashPattern=1 1;" vertex="1" parent="cqccvggJwJvV3luGv6mD-1">
          <mxGeometry x="180" y="-380" width="120" height="50" as="geometry" />
        </mxCell>
        <mxCell id="cqccvggJwJvV3luGv6mD-12" value="&lt;font style=&quot;font-size: 22px&quot;&gt;API&lt;/font&gt;" style="rounded=1;whiteSpace=wrap;html=1;verticalAlign=top;dashed=1;dashPattern=1 1;" vertex="1" parent="cqccvggJwJvV3luGv6mD-1">
          <mxGeometry x="530" y="-380" width="120" height="50" as="geometry" />
        </mxCell>
        <mxCell id="cqccvggJwJvV3luGv6mD-14" value="&lt;font style=&quot;font-size: 22px&quot;&gt;Mapping&lt;/font&gt;" style="rounded=1;whiteSpace=wrap;html=1;verticalAlign=top;dashed=1;dashPattern=1 1;" vertex="1" parent="cqccvggJwJvV3luGv6mD-1">
          <mxGeometry x="180" y="-320" width="120" height="50" as="geometry" />
        </mxCell>
        <mxCell id="cqccvggJwJvV3luGv6mD-15" value="&lt;font style=&quot;font-size: 22px&quot;&gt;Mapping&lt;/font&gt;" style="rounded=1;whiteSpace=wrap;html=1;verticalAlign=top;dashed=1;dashPattern=1 1;" vertex="1" parent="cqccvggJwJvV3luGv6mD-1">
          <mxGeometry x="530" y="-320" width="120" height="50" as="geometry" />
        </mxCell>
        <mxCell id="cqccvggJwJvV3luGv6mD-8" value="" style="rounded=1;whiteSpace=wrap;html=1;fillColor=none;dashed=1;" vertex="1" parent="cqccvggJwJvV3luGv6mD-1">
          <mxGeometry x="50" y="-90" width="750" height="290" as="geometry" />
        </mxCell>
      </root>
    </mxGraphModel>
  </diagram>
</mxfile>
